<?xml version="1.0" encoding="UTF-8" standalone="no"?>
<!-- Created with Inkscape (http://www.inkscape.org/) -->

<svg
   xmlns:dc="http://purl.org/dc/elements/1.1/"
   xmlns:cc="http://creativecommons.org/ns#"
   xmlns:rdf="http://www.w3.org/1999/02/22-rdf-syntax-ns#"
   xmlns:svg="http://www.w3.org/2000/svg"
   xmlns="http://www.w3.org/2000/svg"
   xmlns:sodipodi="http://sodipodi.sourceforge.net/DTD/sodipodi-0.dtd"
   xmlns:inkscape="http://www.inkscape.org/namespaces/inkscape"
   id="svg2"
   version="1.1"
   inkscape:version="0.48.2 r9819"
   width="279"
   height="366"
   sodipodi:docname="arrow_curved_attention_blue_T.png">
  <metadata
     id="metadata8">
    <rdf:RDF>
      <cc:Work
         rdf:about="">
        <dc:format>image/svg+xml</dc:format>
        <dc:type
           rdf:resource="http://purl.org/dc/dcmitype/StillImage" />
        <dc:title></dc:title>
      </cc:Work>
    </rdf:RDF>
  </metadata>
  <defs
     id="defs6" />
  <sodipodi:namedview
     pagecolor="#ffffff"
     bordercolor="#666666"
     borderopacity="1"
     objecttolerance="10"
     gridtolerance="10"
     guidetolerance="10"
     inkscape:pageopacity="0"
     inkscape:pageshadow="2"
     inkscape:window-width="1418"
     inkscape:window-height="987"
     id="namedview4"
     showgrid="false"
     inkscape:zoom="1.8237945"
     inkscape:cx="142.60169"
     inkscape:cy="183"
     inkscape:window-x="0"
     inkscape:window-y="0"
     inkscape:window-maximized="0"
     inkscape:current-layer="svg2" />
  <path
     style="fill:#000000"
     d="M 80.822478,362.1351 C 79.545115,360.5594 74.637745,354.8219 69.91721,349.3851 65.196676,343.94829 56.903608,334.1 51.48817,327.5 46.072733,320.9 37.304293,310.55 32.002748,304.5 7.4495625,276.48048 0.76973455,267.98238 2.0684597,266.41751 c 0.682892,-0.82283 10.7343533,-8.37714 22.3365813,-16.78734 11.602227,-8.4102 42.835921,-31.14257 69.408208,-50.51638 26.572291,-19.3738 48.959791,-35.4732 49.750001,-35.77643 2.28991,-0.87873 1.75652,1.87503 -4.00226,20.66264 -2.95025,9.625 -5.22622,17.64468 -5.0577,17.82151 0.48035,0.50404 22.44651,-4.5776 32.19554,-7.4481 4.84064,-1.42527 10.37617,-3.04275 12.30117,-3.59438 13.54276,-3.88088 41.59064,-17.05483 54,-25.36353 16.13285,-10.80177 29.92133,-24.93727 28.54747,-29.26594 -2.28838,-7.21005 -15.83276,-23.90817 -26.24405,-32.35484 C 207.51214,81.247661 172.009,66.297206 120.61572,55.499452 c -9.28635,-1.951067 -17.22361,-3.757113 -17.63834,-4.013434 -0.70472,-0.435536 20.25711,-47.0557386 21.92965,-48.7726921 0.98239,-1.0084885 22.5838,4.8404049 41.16515,11.1460631 18.84428,6.394885 22.74788,7.988587 39.42782,16.096994 43.17952,20.990314 68.01271,47.304115 71.00413,75.237567 0.92635,8.65013 -3.05084,58.76091 -5.57043,70.18489 -10.74136,48.70201 -69.76266,93.66065 -165.46798,126.04288 -0.56885,0.19247 -5.01241,13.78882 -9.874589,30.21411 -4.862174,16.4253 -9.250082,30.65167 -9.750908,31.61417 -1.267011,2.43498 -2.331766,2.1984 -5.017745,-1.1149 z M 89,316.84715 c 3.575,-11.62379 6.95,-21.68637 7.5,-22.36129 0.55,-0.67492 9.325,-4.00674 19.5,-7.40404 39.47002,-13.17853 75.57256,-30.92812 99.76827,-49.05043 11.02389,-8.25677 26.88626,-23.46989 33.30893,-31.94559 6.15993,-8.12897 13.43266,-22.58686 15.38554,-30.5858 1.12999,-4.62843 4.60573,-35.5 3.99684,-35.5 -0.0699,0 -1.84472,2.49385 -3.94399,5.54189 -12.55018,18.2223 -42.04618,37.34249 -78.01559,50.57204 -18.11947,6.66434 -62.61735,18.10205 -64.2139,16.5055 -0.29755,-0.29755 1.5237,-7.17629 4.04723,-15.2861 2.52353,-8.1098 4.46064,-14.8727 4.30468,-15.02866 -0.15597,-0.15596 -25.30137,18.43784 -55.878675,41.31955 l -55.595105,41.60311 7.851869,9.13633 c 7.84386,9.12702 17.039035,19.88247 41.433471,48.46406 7.122263,8.34475 13.197263,15.16808 13.5,15.16294 0.302736,-0.005 3.47543,-9.51972 7.05043,-21.14351 z M 268.55246,124.75 c 2.89195,-7.79584 2.66,-24.1277 -0.45524,-32.053669 C 256.34049,62.784138 217.09016,35.582984 158.5,16.743565 138.96648,10.462646 131.10311,8.4968864 129.98491,9.6150928 128.90207,10.697931 112.73534,47.113311 113.1937,47.437103 c 0.16846,0.119007 5.2563,1.247643 11.3063,2.508081 21.87677,4.557737 48.8552,13.026229 68.5,21.50206 32.05226,13.829079 59.0125,34.789346 70.08246,54.485686 1.2572,2.23689 2.56406,4.06707 2.90414,4.06707 0.34007,0 1.49471,-2.3625 2.56586,-5.25 z"
     id="path2989"
     inkscape:connector-curvature="0" />
</svg>
